<svg width="167" height="193" viewBox="0 0 167 193" fill="none" xmlns="http://www.w3.org/2000/svg">
<g clip-path="url(#clip0_413_430)">
<mask id="mask0_413_430" style="mask-type:luminance" maskUnits="userSpaceOnUse" x="31" y="62" width="125" height="132">
<path d="M31.9263 62.5057H156V193.091H31.9263V62.5057Z" fill="white"/>
</mask>
<g mask="url(#mask0_413_430)">
<path d="M150.171 89.8519C147.046 82.1015 142.48 75.2193 136.849 69.3594L144.011 63.0483L61.5159 84.9858L115.741 104.519C120.619 106.278 124.688 109.488 127.258 113.611C133.138 123.052 129.93 134.966 119.905 140.952L32.5317 193.091L76.0175 177.248C87.439 178.065 99.2558 176.471 110.556 172.102C145.713 158.503 163.219 122.19 150.171 89.8519Z" fill="#0061E4"/>
</g>
<path d="M23.0548 76.6138C20.1566 63.5089 27.715 50.3697 39.9145 47.2935L106 30.6269C87.0081 20.1881 63.8986 18.7183 42.7362 28.9999C8.28903 45.728 -8.5643 88.6659 4.31828 126.86C7.24846 135.535 11.4363 143.294 16.5752 150L81.7606 112.538L36.8312 93.6358C29.9175 90.7236 24.7785 84.366 23.0548 76.6138Z" fill="#FDC506"/>
<path d="M52.4181 96.5401L58.174 98.5848C58.3339 98.6419 58.449 98.739 58.513 98.8761C58.5833 99.0188 58.5833 99.1559 58.5194 99.2987C58.4618 99.4415 58.3467 99.5386 58.1932 99.5957C58.0397 99.6585 57.8798 99.6585 57.72 99.6014L51.9704 97.5624C51.8105 97.5053 51.6954 97.4082 51.625 97.2654C51.5611 97.1284 51.5547 96.9856 51.6186 96.8485C51.6826 96.7057 51.7913 96.6086 51.9448 96.5458C52.1047 96.4887 52.2646 96.483 52.4181 96.5401ZM60.4764 99.4015L66.226 101.446C66.3859 101.498 66.501 101.6 66.565 101.737C66.6353 101.875 66.6353 102.017 66.5778 102.16C66.5138 102.297 66.4051 102.4 66.2452 102.457C66.0917 102.52 65.9318 102.52 65.7719 102.463L60.0223 100.418C59.8625 100.361 59.7473 100.264 59.6834 100.127C59.613 99.9898 59.613 99.847 59.6706 99.7042C59.7345 99.5671 59.8433 99.4643 60.0032 99.4072C60.1566 99.3444 60.3165 99.3444 60.4764 99.4015ZM68.5284 102.263L74.278 104.302C74.4379 104.359 74.553 104.456 74.6233 104.599C74.6873 104.736 74.6937 104.879 74.6297 105.016C74.5658 105.159 74.457 105.256 74.3036 105.319C74.1437 105.376 73.9838 105.376 73.8303 105.324L68.0743 103.28C67.9144 103.222 67.8057 103.125 67.7353 102.988C67.665 102.845 67.665 102.708 67.729 102.566C67.7865 102.423 67.9016 102.326 68.0551 102.263C68.215 102.206 68.3685 102.206 68.5284 102.263ZM76.5804 105.119L82.3363 107.163C82.4962 107.22 82.6049 107.318 82.6753 107.455C82.7456 107.597 82.7456 107.734 82.6817 107.877C82.6177 108.014 82.509 108.117 82.3555 108.174C82.1956 108.237 82.0421 108.237 81.8823 108.18L76.1263 106.141C75.9728 106.084 75.8577 105.987 75.7873 105.844C75.7234 105.707 75.717 105.564 75.7809 105.427C75.8449 105.284 75.9536 105.187 76.1071 105.124C76.267 105.067 76.4205 105.062 76.5804 105.119ZM84.6387 107.98L90.3883 110.019C90.5482 110.076 90.6633 110.173 90.7273 110.316C90.7976 110.453 90.7976 110.596 90.7401 110.733C90.6761 110.876 90.5674 110.979 90.4075 111.036C90.254 111.093 90.0941 111.098 89.9342 111.041L84.1846 108.997C84.0248 108.94 83.9096 108.842 83.8393 108.705C83.7753 108.563 83.7689 108.426 83.8329 108.283C83.8968 108.146 84.0056 108.043 84.1655 107.986C84.3189 107.923 84.4788 107.923 84.6387 107.98ZM92.6907 110.841L94.6349 111.527C94.7948 111.584 94.9035 111.681 94.9739 111.824C95.0442 111.961 95.0442 112.104 94.9803 112.241C94.9227 112.384 94.8076 112.486 94.6541 112.543C94.4942 112.601 94.3407 112.606 94.1808 112.549L92.2366 111.858C92.0767 111.801 91.9616 111.704 91.8976 111.567C91.8273 111.424 91.8273 111.287 91.8849 111.144C91.9488 111.001 92.0575 110.904 92.2174 110.841C92.3709 110.784 92.5308 110.784 92.6907 110.841Z" fill="#D9D9D9"/>
<path d="M38.3732 163.714L43.7006 160.938C43.8477 160.864 44.0012 160.841 44.1675 160.881C44.3274 160.921 44.4553 161.007 44.5384 161.133C44.628 161.264 44.6472 161.407 44.6024 161.55C44.5576 161.698 44.4681 161.812 44.321 161.887L38.9935 164.662C38.8464 164.742 38.6865 164.759 38.5267 164.719C38.3604 164.685 38.2389 164.599 38.1493 164.468C38.0662 164.337 38.047 164.2 38.0854 164.051C38.1301 163.903 38.2261 163.794 38.3732 163.714ZM45.8303 159.83L51.1514 157.049C51.2985 156.975 51.4584 156.958 51.6247 156.992C51.7846 157.032 51.9125 157.118 51.9956 157.249C52.0852 157.38 52.1044 157.517 52.0596 157.666C52.0148 157.809 51.9189 157.923 51.7718 157.997L46.4507 160.779C46.3036 160.853 46.1437 160.87 45.9838 160.836C45.8176 160.796 45.6896 160.71 45.6065 160.579C45.5234 160.447 45.4978 160.31 45.5425 160.162C45.5873 160.019 45.6832 159.905 45.8303 159.83ZM53.2875 155.941L58.6086 153.165C58.7557 153.085 58.9156 153.068 59.0755 153.108C59.2418 153.142 59.3697 153.228 59.4528 153.359C59.536 153.491 59.5615 153.628 59.5168 153.776C59.472 153.925 59.3761 154.033 59.229 154.113L53.9015 156.889C53.7544 156.963 53.6009 156.986 53.4346 156.946C53.2747 156.906 53.1468 156.821 53.0637 156.695C52.9741 156.564 52.955 156.421 52.9997 156.278C53.0445 156.129 53.1404 156.015 53.2875 155.941ZM60.7383 152.052L66.0658 149.276C66.2129 149.202 66.3664 149.179 66.5327 149.219C66.6989 149.259 66.8205 149.339 66.91 149.47C66.9931 149.601 67.0123 149.738 66.974 149.887C66.9292 150.035 66.8333 150.144 66.6862 150.224L61.3587 153C61.2116 153.074 61.0581 153.097 60.8918 153.057C60.7255 153.017 60.604 152.937 60.5145 152.805C60.4313 152.674 60.4121 152.537 60.4569 152.388C60.4953 152.24 60.5912 152.131 60.7383 152.052ZM68.1955 148.168L73.523 145.386C73.6701 145.312 73.8236 145.295 73.9899 145.329C74.1561 145.369 74.2777 145.455 74.3672 145.586C74.4503 145.712 74.4695 145.855 74.4247 145.997C74.3864 146.146 74.2904 146.26 74.1433 146.334L68.8159 149.11C68.6688 149.19 68.5153 149.207 68.349 149.167C68.1827 149.133 68.0612 149.047 67.9717 148.916C67.8885 148.785 67.8693 148.648 67.9077 148.499C67.9525 148.356 68.0484 148.242 68.1955 148.168ZM75.6527 144.278L80.9802 141.503C81.1273 141.423 81.2808 141.405 81.447 141.44C81.6069 141.48 81.7348 141.565 81.818 141.697C81.9075 141.828 81.9267 141.965 81.8819 142.114C81.8372 142.256 81.7412 142.371 81.5941 142.445L76.2731 145.226C76.126 145.301 75.9661 145.318 75.8062 145.283C75.6399 145.244 75.512 145.158 75.4288 145.026C75.3457 144.895 75.3201 144.758 75.3649 144.61C75.4097 144.467 75.5056 144.353 75.6527 144.278ZM83.1099 140.389L88.431 137.613C88.578 137.533 88.7379 137.516 88.8978 137.556C89.0641 137.59 89.192 137.676 89.2752 137.807C89.3583 137.939 89.3839 138.076 89.3391 138.224C89.2943 138.373 89.1984 138.481 89.0513 138.561L83.7302 141.337C83.5831 141.411 83.4233 141.434 83.257 141.394C83.0971 141.354 82.9692 141.274 82.886 141.143C82.7965 141.011 82.7773 140.869 82.8221 140.726C82.8668 140.577 82.9628 140.469 83.1099 140.389ZM90.5607 136.499L93.5282 134.957C93.6753 134.883 93.8288 134.86 93.9951 134.9C94.1549 134.94 94.2829 135.02 94.366 135.151C94.4555 135.283 94.4747 135.42 94.43 135.568C94.3852 135.717 94.2893 135.825 94.1422 135.905L91.181 137.447C91.0339 137.527 90.8804 137.545 90.7142 137.505C90.5543 137.47 90.4264 137.385 90.3432 137.253C90.2537 137.122 90.2345 136.985 90.2793 136.836C90.324 136.688 90.4136 136.579 90.5607 136.499Z" fill="#D9D9D9"/>
<path d="M61.8726 71.989L67.91 70.6582C68.0763 70.6239 68.2362 70.6411 68.3769 70.721C68.524 70.7953 68.6199 70.9095 68.6583 71.058C68.7031 71.2065 68.6775 71.3436 68.5879 71.4749C68.4984 71.6006 68.3705 71.6862 68.2042 71.7205L62.1668 73.057C62.0005 73.0913 61.847 73.0684 61.7 72.9942C61.5529 72.9142 61.4569 72.8 61.4185 72.6572C61.3738 72.5087 61.3994 72.3716 61.4889 72.2403C61.5784 72.1089 61.7063 72.0289 61.8726 71.989ZM70.3275 70.127L76.3649 68.7906C76.5312 68.7563 76.6847 68.7791 76.8318 68.8534C76.9789 68.9333 77.0748 69.0476 77.1132 69.1904C77.1515 69.3389 77.1324 69.4759 77.0428 69.6073C76.9533 69.7387 76.8254 69.8186 76.6591 69.8586L70.6217 71.1894C70.4554 71.2293 70.2955 71.2065 70.1484 71.1265C70.0013 71.0523 69.9118 70.9381 69.867 70.7896C69.8287 70.6411 69.8542 70.504 69.9438 70.3726C70.0333 70.247 70.1612 70.1613 70.3275 70.127ZM78.776 68.2594L84.8134 66.9286C84.9797 66.8887 85.1396 66.9115 85.2867 66.9915C85.4274 67.0657 85.5233 67.1799 85.5617 67.3284C85.6064 67.4769 85.5809 67.614 85.4913 67.7454C85.4018 67.871 85.2739 67.9567 85.1076 67.991L79.0702 69.3274C78.9039 69.3617 78.7504 69.3389 78.6033 69.2646C78.4562 69.1846 78.3603 69.0704 78.3219 68.9276C78.2772 68.7791 78.3027 68.6421 78.3923 68.5107C78.4818 68.3793 78.6097 68.2994 78.776 68.2594ZM87.2309 66.3975L93.2683 65.061C93.4346 65.0267 93.5881 65.0496 93.7351 65.1238C93.8822 65.2038 93.9782 65.318 94.0166 65.4608C94.0549 65.6093 94.0357 65.7464 93.9462 65.8777C93.8567 66.0091 93.7288 66.0891 93.5625 66.129L87.5251 67.4598C87.3588 67.4941 87.1989 67.4769 87.0518 67.397C86.9047 67.3227 86.8152 67.2085 86.7704 67.06C86.732 66.9115 86.7576 66.7744 86.8472 66.6431C86.9367 66.5174 87.0646 66.4317 87.2309 66.3975ZM95.6794 64.5298L101.717 63.1991C101.883 63.1591 102.043 63.182 102.19 63.2619C102.331 63.3362 102.427 63.4504 102.465 63.5989C102.51 63.7474 102.484 63.8845 102.395 64.0158C102.305 64.1415 102.177 64.2271 102.011 64.2614L95.9736 65.5979C95.8073 65.6322 95.6538 65.6093 95.5067 65.5351C95.3596 65.4551 95.2637 65.3409 95.2253 65.1981C95.1805 65.0496 95.2061 64.9125 95.2957 64.7812C95.3852 64.6498 95.5131 64.5698 95.6794 64.5298ZM104.134 62.6679L104.78 62.5251C104.947 62.4852 105.106 62.508 105.247 62.5823C105.394 62.6622 105.49 62.7764 105.529 62.9192C105.573 63.0677 105.548 63.2048 105.458 63.3362C105.369 63.4675 105.241 63.5532 105.074 63.5875L104.428 63.7303C104.262 63.7645 104.102 63.7474 103.955 63.6674C103.808 63.5932 103.719 63.4789 103.674 63.3305C103.635 63.182 103.661 63.0449 103.751 62.9135C103.84 62.7879 103.968 62.7022 104.134 62.6679Z" fill="#D9D9D9"/>
<mask id="mask1_413_430" style="mask-type:luminance" maskUnits="userSpaceOnUse" x="105" y="32" width="52" height="31">
<path d="M105.603 32.8977H156.358V62.1401H105.603V32.8977Z" fill="white"/>
</mask>
<g mask="url(#mask1_413_430)">
<mask id="mask2_413_430" style="mask-type:luminance" maskUnits="userSpaceOnUse" x="104" y="28" width="51" height="38">
<path d="M112.651 28.5171L154.977 39.9114L146.471 65.1101L104.145 53.7158L112.651 28.5171Z" fill="white"/>
</mask>
<g mask="url(#mask2_413_430)">
<mask id="mask3_413_430" style="mask-type:luminance" maskUnits="userSpaceOnUse" x="104" y="28" width="52" height="38">
<path d="M155.194 39.9684L112.868 28.5799L104.362 53.7786L146.688 65.1672L155.194 39.9684Z" fill="white"/>
</mask>
<g mask="url(#mask3_413_430)">
<path d="M141.405 47.1649C142.147 46.4966 144.104 46.0169 145.147 45.7142C147.296 45.0973 150.5 44.1892 152.31 43.0698C152.892 42.7042 154.139 41.7619 154.516 41.2478C154.702 40.9965 154.913 40.5739 154.746 40.2883C154.452 39.7857 153.41 39.6886 152.879 39.5287L152.08 39.3117C150.052 38.8947 147.443 39.7172 145.562 40.3397L144.271 40.6995L140.158 41.996L137.555 42.8013C137.165 42.9213 136.654 43.1098 136.238 43.0869C135.867 43.0698 135.47 42.8642 135.131 42.7271C135.406 42.5615 135.707 42.4187 135.886 42.1617C136.295 41.5563 135.905 40.5453 135.342 40.3055C134.754 40.0542 132.906 40.6538 132.324 40.8937C131.767 41.1222 131.518 41.3278 130.904 41.0993L126.747 39.2717L116.885 34.7425L114.352 33.5546C113.873 33.3261 113.246 33.012 112.689 33.0291C112.152 33.0462 111.698 33.2804 111.282 33.5603L116.591 37.0785L116.341 37.4497L118.126 38.7005L117.876 39.0718C118.158 39.0661 118.311 39.0432 118.58 39.1632L120.844 40.7966C121.228 41.0708 121.643 41.2593 121.63 41.7333C122.692 41.8875 122.513 42.1674 123.293 42.55C124.278 43.0355 124.809 42.6528 125.589 43.7837L126.043 43.9094L125.423 44.292L125.992 44.7718L125.743 45.143C126.523 45.3086 126.459 45.52 127.067 45.9426L127.003 46.1425L122.219 47.6161C121.822 47.7417 120.537 48.1644 120.191 48.1644C119.757 48.1644 119.187 47.7246 118.829 47.4961L116.495 46.0626C116.162 45.8512 115.638 45.4743 115.241 45.4286C114.838 45.3886 113.745 45.6913 113.585 46.0511C113.502 46.2396 113.585 46.5309 113.63 46.7194L114.052 48.587L109.927 47.0106C108.801 46.5652 108.104 46.0568 106.946 46.7879C107.509 47.1649 107.816 47.1991 108.2 47.7817L109.767 48.9411L113.514 51.6312L112.542 52.6878C112.926 52.9048 113.195 53.0019 113.649 53.0419C113.975 53.0762 114.435 53.0076 114.704 53.1847C114.902 53.316 115.318 53.9443 115.472 54.167L116.962 56.2803C117.281 56.7258 117.55 57.3197 118.234 57.2341C119.245 57.1027 119.111 56.6287 119.162 55.8976L119.392 53.1047C119.507 52.5279 119.884 52.5507 120.447 52.4936L123.261 52.1395C124.125 52.0024 125.474 51.7226 126.299 51.477C127.572 51.1057 128.263 50.7516 129.625 50.6945C130.034 50.6774 131.083 50.5175 131.371 50.6203C131.703 50.7345 132.906 52.0081 133.353 52.3565L133.104 52.7278L133.891 52.9391C135.221 52.7335 134.703 53.9557 134.78 54.2813C134.901 54.7953 135.125 54.8239 135.119 55.4692C135.867 55.8576 136.103 57.0513 136.506 57.7081C136.948 58.4392 137.447 58.4963 137.773 59.2616C137.952 59.69 138.361 60.9979 138.687 61.2492C139.205 61.6433 139.87 61.015 140.785 61.1692L140.964 55.5035C140.977 55.1323 140.964 53.4817 141.118 53.2646C141.297 53.0076 141.898 53.0019 142.218 52.9334C143.011 52.7678 145.025 52.2594 145.243 51.4941C145.294 51.3113 145.268 51.1172 145.224 50.9401C144.917 49.7064 144.072 50.0548 143.036 49.7978C142.601 50.3861 141.751 50.5403 141.022 50.6831C141.028 49.8435 140.766 47.7417 141.405 47.1649Z" fill="#0061E4"/>
</g>
</g>
</g>
</g>
<defs>
<clipPath id="clip0_413_430">
<rect width="167" height="193" fill="white"/>
</clipPath>
</defs>
</svg>
